<?xml version="1.0" encoding="utf-8"?>
<!-- Generator: Adobe Illustrator 15.0.0, SVG Export Plug-In . SVG Version: 6.00 Build 0)  -->
<!DOCTYPE svg PUBLIC "-//W3C//DTD SVG 1.1//EN" "http://www.w3.org/Graphics/SVG/1.1/DTD/svg11.dtd">
<svg version="1.1" id="White" xmlns="http://www.w3.org/2000/svg" xmlns:xlink="http://www.w3.org/1999/xlink" x="0px" y="0px"
	 width="612px" height="612px" viewBox="0 90 612 612" enable-background="new 0 90 612 612" xml:space="preserve">
<path d="M612,396c0,169.065-136.935,306-306,306C136.935,702,0,565.065,0,396C0,226.935,136.935,90,306,90
	C475.065,90,612,226.935,612,396z M250.002,557.415c135.711,0,209.916-112.455,209.916-209.916c0-3.213,0-6.426-0.153-9.486
	c14.382-10.404,26.929-23.409,36.873-38.25c-13.158,5.814-27.387,9.792-42.381,11.628c15.3-9.18,26.928-23.562,32.437-40.851
	c-14.229,8.415-29.988,14.535-46.818,17.901c-13.464-14.382-32.589-23.256-53.856-23.256c-40.697,0-73.745,33.048-73.745,73.746
	c0,5.814,0.611,11.475,1.988,16.83c-61.353-3.06-115.668-32.436-152.082-77.112c-6.273,10.863-9.945,23.562-9.945,37.026
	c0,25.551,13.005,48.195,32.895,61.353c-12.087-0.306-23.409-3.672-33.354-9.18c0,0.306,0,0.612,0,0.918
	c0,35.802,25.398,65.484,59.211,72.369c-6.12,1.684-12.699,2.602-19.431,2.602c-4.743,0-9.333-0.459-13.923-1.377
	c9.333,29.376,36.567,50.643,68.85,51.255c-25.245,19.736-57.069,31.518-91.647,31.518c-5.967,0-11.781-0.306-17.595-1.071
	C169.524,545.175,208.386,557.415,250.002,557.415"/>
</svg>
